<?xml version="1.0" encoding="UTF-8"?>
<svg xmlns="http://www.w3.org/2000/svg" xmlns:xlink="http://www.w3.org/1999/xlink" width="113.3858pt" height="56.6929pt" viewBox="0 0 113.3858 56.6929" version="1.1">
<g id="surface1">
<path style=" stroke:none;fill-rule:nonzero;fill:rgb(0%,0%,85.998535%);fill-opacity:1;" d="M 17.523438 18.238281 L 21.394531 13.410156 L 18.9375 13.410156 L 15.609375 17.882812 L 15.582031 17.882812 L 15.582031 13.410156 L 13.480469 13.410156 L 13.480469 23.582031 L 15.582031 23.582031 L 15.582031 18.78125 L 15.609375 18.78125 L 19.050781 23.582031 L 21.722656 23.582031 Z M 17.523438 18.238281 "/>
<path style=" stroke:none;fill-rule:nonzero;fill:rgb(0%,0%,85.998535%);fill-opacity:1;" d="M 25.554688 16.097656 C 25.039062 16.097656 24.585938 16.164062 24.199219 16.292969 C 23.816406 16.421875 23.492188 16.597656 23.234375 16.828125 C 22.976562 17.054688 22.78125 17.320312 22.644531 17.621094 C 22.507812 17.921875 22.429688 18.246094 22.414062 18.597656 L 24.355469 18.597656 C 24.371094 18.25 24.480469 17.980469 24.6875 17.789062 C 24.894531 17.597656 25.179688 17.5 25.554688 17.496094 C 25.789062 17.496094 25.996094 17.539062 26.171875 17.628906 C 26.351562 17.714844 26.492188 17.855469 26.585938 18.042969 C 26.6875 18.230469 26.738281 18.476562 26.742188 18.78125 L 26.742188 19.039062 C 26.582031 19.046875 26.398438 19.0625 26.1875 19.085938 C 25.976562 19.105469 25.757812 19.128906 25.535156 19.15625 C 25.316406 19.183594 25.113281 19.210938 24.925781 19.238281 C 24.402344 19.320312 23.960938 19.433594 23.601562 19.570312 C 23.242188 19.710938 22.949219 19.878906 22.730469 20.074219 C 22.511719 20.269531 22.355469 20.492188 22.257812 20.734375 C 22.160156 20.984375 22.109375 21.253906 22.113281 21.550781 C 22.117188 21.976562 22.214844 22.351562 22.410156 22.679688 C 22.609375 23.011719 22.890625 23.269531 23.257812 23.460938 C 23.625 23.652344 24.066406 23.746094 24.582031 23.753906 C 25.085938 23.753906 25.535156 23.660156 25.933594 23.46875 C 26.332031 23.28125 26.667969 22.996094 26.941406 22.609375 L 26.96875 22.609375 C 26.96875 22.789062 26.976562 22.957031 26.992188 23.117188 C 27.007812 23.277344 27.03125 23.429688 27.070312 23.582031 L 28.867188 23.582031 C 28.824219 23.421875 28.789062 23.246094 28.757812 23.050781 C 28.730469 22.863281 28.707031 22.648438 28.691406 22.40625 C 28.675781 22.167969 28.667969 21.898438 28.667969 21.59375 L 28.667969 18.96875 C 28.667969 18.019531 28.40625 17.300781 27.882812 16.820312 C 27.363281 16.339844 26.585938 16.097656 25.554688 16.097656 Z M 26.742188 20.523438 C 26.742188 20.742188 26.730469 20.933594 26.710938 21.101562 C 26.6875 21.265625 26.644531 21.410156 26.585938 21.542969 C 26.527344 21.675781 26.441406 21.796875 26.328125 21.910156 C 26.179688 22.050781 26.003906 22.15625 25.800781 22.222656 C 25.601562 22.289062 25.394531 22.324219 25.183594 22.324219 C 24.949219 22.324219 24.753906 22.285156 24.59375 22.207031 C 24.4375 22.132812 24.316406 22.023438 24.234375 21.886719 C 24.152344 21.753906 24.113281 21.59375 24.113281 21.410156 C 24.109375 21.121094 24.199219 20.898438 24.386719 20.742188 C 24.574219 20.589844 24.871094 20.476562 25.285156 20.410156 C 25.429688 20.386719 25.585938 20.363281 25.757812 20.34375 C 25.925781 20.324219 26.097656 20.304688 26.265625 20.289062 C 26.4375 20.273438 26.59375 20.261719 26.742188 20.253906 Z M 26.742188 20.523438 "/>
<path style=" stroke:none;fill-rule:nonzero;fill:rgb(0%,0%,85.998535%);fill-opacity:1;" d="M 34.816406 16.152344 C 34.503906 16.15625 34.21875 16.203125 33.957031 16.292969 C 33.691406 16.382812 33.453125 16.511719 33.242188 16.671875 C 33.03125 16.835938 32.84375 17.023438 32.6875 17.238281 L 32.660156 17.238281 L 32.660156 16.324219 L 30.789062 16.324219 L 30.789062 23.582031 L 32.785156 23.582031 L 32.785156 19.695312 C 32.789062 19.257812 32.851562 18.894531 32.972656 18.601562 C 33.09375 18.308594 33.261719 18.089844 33.476562 17.945312 C 33.691406 17.800781 33.9375 17.726562 34.214844 17.726562 C 34.613281 17.722656 34.921875 17.851562 35.144531 18.113281 C 35.371094 18.371094 35.484375 18.777344 35.488281 19.324219 L 35.488281 23.582031 L 37.484375 23.582031 L 37.484375 19.125 C 37.484375 18.46875 37.375 17.917969 37.15625 17.476562 C 36.9375 17.039062 36.628906 16.707031 36.230469 16.488281 C 35.832031 16.265625 35.359375 16.152344 34.816406 16.152344 "/>
<path style=" stroke:none;fill-rule:nonzero;fill:rgb(0%,0%,85.998535%);fill-opacity:1;" d="M 42.804688 16.097656 C 42.25 16.097656 41.746094 16.191406 41.300781 16.371094 C 40.851562 16.550781 40.464844 16.808594 40.144531 17.148438 C 39.828125 17.484375 39.578125 17.890625 39.40625 18.363281 C 39.234375 18.835938 39.152344 19.363281 39.148438 19.953125 C 39.152344 20.539062 39.234375 21.070312 39.40625 21.542969 C 39.578125 22.015625 39.828125 22.421875 40.144531 22.757812 C 40.464844 23.097656 40.851562 23.355469 41.300781 23.535156 C 41.746094 23.714844 42.25 23.808594 42.804688 23.808594 C 43.457031 23.804688 44.035156 23.675781 44.527344 23.421875 C 45.019531 23.167969 45.414062 22.8125 45.707031 22.351562 C 46 21.894531 46.175781 21.355469 46.230469 20.738281 L 44.132812 20.738281 C 44.113281 21.054688 44.042969 21.328125 43.929688 21.550781 C 43.816406 21.78125 43.660156 21.957031 43.46875 22.082031 C 43.277344 22.203125 43.050781 22.265625 42.789062 22.265625 C 42.464844 22.265625 42.1875 22.171875 41.953125 21.984375 C 41.722656 21.796875 41.542969 21.535156 41.421875 21.1875 C 41.296875 20.84375 41.234375 20.429688 41.234375 19.953125 C 41.234375 19.472656 41.296875 19.0625 41.421875 18.71875 C 41.542969 18.371094 41.722656 18.109375 41.953125 17.921875 C 42.1875 17.734375 42.464844 17.640625 42.789062 17.640625 C 43.050781 17.640625 43.277344 17.695312 43.46875 17.808594 C 43.664062 17.921875 43.816406 18.078125 43.933594 18.285156 C 44.050781 18.492188 44.121094 18.738281 44.148438 19.023438 L 46.230469 19.023438 C 46.191406 18.597656 46.082031 18.207031 45.90625 17.851562 C 45.726562 17.496094 45.492188 17.183594 45.195312 16.921875 C 44.894531 16.660156 44.546875 16.457031 44.144531 16.316406 C 43.742188 16.171875 43.292969 16.097656 42.804688 16.097656 "/>
<path style=" stroke:none;fill-rule:nonzero;fill:rgb(0%,0%,85.998535%);fill-opacity:1;" d="M 51.136719 22.394531 C 50.847656 22.398438 50.582031 22.332031 50.339844 22.203125 C 50.101562 22.070312 49.90625 21.855469 49.753906 21.558594 C 49.601562 21.261719 49.515625 20.863281 49.492188 20.367188 L 54.707031 20.367188 C 54.707031 19.972656 54.6875 19.625 54.652344 19.328125 C 54.613281 19.03125 54.554688 18.753906 54.476562 18.511719 C 54.324219 18.019531 54.089844 17.59375 53.777344 17.230469 C 53.460938 16.871094 53.082031 16.59375 52.632812 16.398438 C 52.183594 16.199219 51.679688 16.097656 51.121094 16.097656 C 50.554688 16.097656 50.046875 16.195312 49.601562 16.390625 C 49.15625 16.582031 48.78125 16.847656 48.46875 17.191406 C 48.160156 17.535156 47.925781 17.9375 47.765625 18.398438 C 47.605469 18.859375 47.523438 19.359375 47.523438 19.894531 C 47.523438 20.476562 47.605469 21.003906 47.765625 21.484375 C 47.925781 21.960938 48.164062 22.375 48.472656 22.71875 C 48.78125 23.066406 49.160156 23.335938 49.609375 23.523438 C 50.054688 23.710938 50.566406 23.808594 51.136719 23.808594 C 51.621094 23.808594 52.058594 23.742188 52.453125 23.617188 C 52.84375 23.488281 53.191406 23.316406 53.488281 23.09375 C 53.78125 22.871094 54.027344 22.613281 54.214844 22.320312 C 54.402344 22.027344 54.535156 21.714844 54.605469 21.382812 L 52.5625 21.382812 C 52.53125 21.578125 52.449219 21.753906 52.324219 21.90625 C 52.203125 22.058594 52.039062 22.175781 51.839844 22.261719 C 51.636719 22.351562 51.402344 22.394531 51.136719 22.394531 Z M 51.121094 17.511719 C 51.390625 17.511719 51.636719 17.566406 51.859375 17.679688 C 52.082031 17.792969 52.269531 17.96875 52.417969 18.207031 C 52.5625 18.445312 52.660156 18.742188 52.707031 19.109375 L 49.535156 19.109375 C 49.589844 18.742188 49.691406 18.445312 49.835938 18.207031 C 49.980469 17.96875 50.164062 17.792969 50.382812 17.679688 C 50.601562 17.566406 50.847656 17.511719 51.121094 17.511719 "/>
<path style=" stroke:none;fill-rule:nonzero;fill:rgb(0%,0%,85.998535%);fill-opacity:1;" d="M 58.4375 23.582031 L 58.4375 13.410156 L 56.441406 13.410156 L 56.441406 23.582031 Z M 58.4375 23.582031 "/>
<path style=" stroke:none;fill-rule:nonzero;fill:rgb(0%,0%,85.998535%);fill-opacity:1;" d="M 63.757812 15.496094 L 65.757812 13.410156 L 63.285156 13.410156 L 62.1875 15.496094 Z M 63.488281 16.097656 C 62.96875 16.097656 62.515625 16.164062 62.132812 16.292969 C 61.746094 16.421875 61.425781 16.597656 61.164062 16.828125 C 60.90625 17.054688 60.710938 17.320312 60.574219 17.621094 C 60.441406 17.921875 60.359375 18.246094 60.34375 18.597656 L 62.285156 18.597656 C 62.304688 18.25 62.414062 17.980469 62.621094 17.789062 C 62.824219 17.597656 63.113281 17.5 63.488281 17.496094 C 63.722656 17.496094 63.925781 17.539062 64.105469 17.628906 C 64.28125 17.714844 64.421875 17.855469 64.519531 18.042969 C 64.621094 18.230469 64.667969 18.476562 64.671875 18.78125 L 64.671875 19.039062 C 64.515625 19.046875 64.332031 19.0625 64.121094 19.085938 C 63.90625 19.105469 63.6875 19.128906 63.46875 19.15625 C 63.246094 19.183594 63.042969 19.210938 62.859375 19.238281 C 62.335938 19.320312 61.894531 19.433594 61.53125 19.570312 C 61.171875 19.710938 60.882812 19.878906 60.664062 20.074219 C 60.445312 20.269531 60.289062 20.492188 60.191406 20.734375 C 60.09375 20.984375 60.042969 21.253906 60.042969 21.550781 C 60.046875 21.976562 60.148438 22.351562 60.34375 22.679688 C 60.539062 23.011719 60.820312 23.269531 61.191406 23.460938 C 61.554688 23.652344 62 23.746094 62.515625 23.753906 C 63.019531 23.753906 63.46875 23.660156 63.863281 23.46875 C 64.261719 23.28125 64.597656 22.996094 64.871094 22.609375 L 64.898438 22.609375 C 64.898438 22.789062 64.90625 22.957031 64.925781 23.117188 C 64.9375 23.277344 64.964844 23.429688 65 23.582031 L 66.800781 23.582031 C 66.757812 23.421875 66.722656 23.246094 66.691406 23.050781 C 66.660156 22.863281 66.636719 22.648438 66.625 22.40625 C 66.605469 22.167969 66.601562 21.898438 66.601562 21.59375 L 66.601562 18.96875 C 66.601562 18.019531 66.339844 17.300781 65.8125 16.820312 C 65.292969 16.339844 64.515625 16.097656 63.488281 16.097656 Z M 64.671875 20.523438 C 64.675781 20.742188 64.664062 20.933594 64.640625 21.101562 C 64.621094 21.265625 64.578125 21.410156 64.515625 21.542969 C 64.457031 21.675781 64.371094 21.796875 64.257812 21.910156 C 64.109375 22.050781 63.9375 22.15625 63.734375 22.222656 C 63.53125 22.289062 63.328125 22.324219 63.113281 22.324219 C 62.882812 22.324219 62.683594 22.285156 62.527344 22.207031 C 62.367188 22.132812 62.246094 22.023438 62.164062 21.886719 C 62.085938 21.753906 62.042969 21.59375 62.042969 21.410156 C 62.042969 21.121094 62.132812 20.898438 62.316406 20.742188 C 62.503906 20.589844 62.804688 20.476562 63.214844 20.410156 C 63.359375 20.386719 63.515625 20.363281 63.6875 20.34375 C 63.859375 20.324219 64.03125 20.304688 64.199219 20.289062 C 64.371094 20.273438 64.527344 20.261719 64.671875 20.253906 Z M 64.671875 20.523438 "/>
<path style=" stroke:none;fill-rule:nonzero;fill:rgb(0%,0%,85.998535%);fill-opacity:1;" d="M 71.789062 15.496094 L 73.417969 13.410156 L 71.589844 13.410156 L 70.734375 14.496094 L 69.863281 13.410156 L 68.035156 13.410156 L 69.660156 15.496094 Z M 72.574219 16.210938 C 72.148438 16.207031 71.769531 16.300781 71.441406 16.488281 C 71.117188 16.671875 70.832031 16.964844 70.589844 17.355469 L 70.5625 17.355469 L 70.5625 16.324219 L 68.71875 16.324219 L 68.71875 23.582031 L 70.71875 23.582031 L 70.71875 20.152344 C 70.722656 19.4375 70.878906 18.890625 71.199219 18.519531 C 71.519531 18.144531 71.988281 17.957031 72.605469 17.953125 C 72.703125 17.953125 72.804688 17.960938 72.90625 17.972656 C 73.011719 17.984375 73.117188 18.003906 73.230469 18.023438 L 73.230469 16.296875 C 73.128906 16.269531 73.019531 16.246094 72.902344 16.234375 C 72.785156 16.21875 72.675781 16.210938 72.574219 16.210938 "/>
<path style=" stroke:none;fill-rule:nonzero;fill:rgb(0%,0%,85.998535%);fill-opacity:1;" d="M 16.421875 39.386719 C 16.136719 39.390625 15.867188 39.324219 15.628906 39.195312 C 15.386719 39.0625 15.191406 38.847656 15.042969 38.550781 C 14.890625 38.253906 14.800781 37.855469 14.78125 37.359375 L 19.992188 37.359375 C 19.992188 36.964844 19.972656 36.617188 19.9375 36.316406 C 19.902344 36.019531 19.84375 35.746094 19.765625 35.5 C 19.609375 35.007812 19.378906 34.582031 19.0625 34.222656 C 18.75 33.863281 18.367188 33.582031 17.921875 33.386719 C 17.472656 33.191406 16.96875 33.089844 16.410156 33.089844 C 15.839844 33.089844 15.332031 33.1875 14.886719 33.382812 C 14.441406 33.570312 14.066406 33.839844 13.757812 34.183594 C 13.449219 34.527344 13.214844 34.929688 13.054688 35.390625 C 12.894531 35.847656 12.808594 36.347656 12.808594 36.886719 C 12.808594 37.46875 12.894531 37.996094 13.054688 38.472656 C 13.214844 38.953125 13.449219 39.363281 13.761719 39.710938 C 14.070312 40.058594 14.449219 40.328125 14.894531 40.515625 C 15.34375 40.703125 15.851562 40.796875 16.421875 40.800781 C 16.90625 40.796875 17.34375 40.734375 17.738281 40.605469 C 18.132812 40.480469 18.476562 40.308594 18.773438 40.082031 C 19.070312 39.863281 19.3125 39.605469 19.5 39.3125 C 19.691406 39.019531 19.824219 38.707031 19.894531 38.371094 L 17.851562 38.371094 C 17.816406 38.570312 17.738281 38.742188 17.613281 38.894531 C 17.488281 39.046875 17.328125 39.167969 17.128906 39.253906 C 16.925781 39.339844 16.691406 39.382812 16.421875 39.386719 Z M 16.410156 34.503906 C 16.679688 34.503906 16.921875 34.558594 17.148438 34.671875 C 17.371094 34.785156 17.554688 34.960938 17.703125 35.195312 C 17.851562 35.433594 17.949219 35.734375 17.996094 36.101562 L 14.824219 36.101562 C 14.878906 35.734375 14.980469 35.433594 15.125 35.195312 C 15.269531 34.960938 15.453125 34.785156 15.671875 34.671875 C 15.890625 34.558594 16.136719 34.503906 16.410156 34.503906 "/>
<path style=" stroke:none;fill-rule:nonzero;fill:rgb(0%,0%,85.998535%);fill-opacity:1;" d="M 25.183594 37.1875 L 25.183594 35.617188 L 21.46875 35.617188 L 21.46875 37.1875 Z M 25.183594 37.1875 "/>
<path style=" stroke:none;fill-rule:nonzero;fill:rgb(0%,0%,85.998535%);fill-opacity:1;" d="M 28.84375 40.570312 L 28.84375 30.402344 L 26.847656 30.402344 L 26.847656 40.570312 Z M 28.84375 40.570312 "/>
<path style=" stroke:none;fill-rule:nonzero;fill:rgb(0%,0%,85.998535%);fill-opacity:1;" d="M 34.191406 39.386719 C 33.90625 39.390625 33.636719 39.324219 33.398438 39.195312 C 33.15625 39.0625 32.960938 38.847656 32.8125 38.550781 C 32.660156 38.253906 32.570312 37.855469 32.550781 37.359375 L 37.761719 37.359375 C 37.761719 36.964844 37.742188 36.617188 37.707031 36.316406 C 37.667969 36.019531 37.613281 35.746094 37.535156 35.5 C 37.378906 35.007812 37.144531 34.582031 36.832031 34.222656 C 36.519531 33.863281 36.136719 33.582031 35.691406 33.386719 C 35.238281 33.191406 34.738281 33.089844 34.179688 33.089844 C 33.609375 33.089844 33.101562 33.1875 32.65625 33.382812 C 32.210938 33.570312 31.835938 33.839844 31.527344 34.183594 C 31.21875 34.527344 30.984375 34.929688 30.820312 35.390625 C 30.664062 35.847656 30.578125 36.347656 30.578125 36.886719 C 30.578125 37.46875 30.664062 37.996094 30.820312 38.472656 C 30.984375 38.953125 31.21875 39.363281 31.527344 39.710938 C 31.839844 40.058594 32.21875 40.328125 32.664062 40.515625 C 33.113281 40.703125 33.621094 40.796875 34.191406 40.800781 C 34.675781 40.796875 35.113281 40.734375 35.507812 40.605469 C 35.902344 40.480469 36.246094 40.308594 36.542969 40.082031 C 36.839844 39.863281 37.082031 39.605469 37.269531 39.3125 C 37.460938 39.019531 37.589844 38.707031 37.664062 38.371094 L 35.621094 38.371094 C 35.585938 38.570312 35.507812 38.742188 35.382812 38.894531 C 35.257812 39.046875 35.097656 39.167969 34.898438 39.253906 C 34.695312 39.339844 34.457031 39.382812 34.191406 39.386719 Z M 34.179688 34.503906 C 34.445312 34.503906 34.691406 34.558594 34.914062 34.671875 C 35.140625 34.785156 35.324219 34.960938 35.472656 35.195312 C 35.621094 35.433594 35.71875 35.734375 35.761719 36.101562 L 32.59375 36.101562 C 32.648438 35.734375 32.746094 35.433594 32.894531 35.195312 C 33.039062 34.960938 33.222656 34.785156 33.441406 34.671875 C 33.660156 34.558594 33.90625 34.503906 34.179688 34.503906 "/>
<path style=" stroke:none;fill-rule:nonzero;fill:rgb(0%,0%,85.998535%);fill-opacity:1;" d="M 42.339844 33.089844 C 41.820312 33.089844 41.371094 33.15625 40.984375 33.285156 C 40.597656 33.410156 40.277344 33.589844 40.019531 33.820312 C 39.757812 34.042969 39.5625 34.3125 39.425781 34.613281 C 39.292969 34.914062 39.214844 35.238281 39.195312 35.585938 L 41.140625 35.585938 C 41.15625 35.242188 41.265625 34.972656 41.472656 34.78125 C 41.675781 34.585938 41.964844 34.492188 42.339844 34.488281 C 42.574219 34.484375 42.777344 34.53125 42.957031 34.617188 C 43.132812 34.703125 43.273438 34.84375 43.371094 35.03125 C 43.472656 35.222656 43.519531 35.46875 43.523438 35.773438 L 43.523438 36.03125 C 43.367188 36.039062 43.183594 36.054688 42.972656 36.074219 C 42.761719 36.097656 42.539062 36.121094 42.320312 36.148438 C 42.097656 36.171875 41.894531 36.203125 41.710938 36.230469 C 41.1875 36.3125 40.746094 36.421875 40.382812 36.5625 C 40.023438 36.703125 39.734375 36.871094 39.515625 37.066406 C 39.296875 37.261719 39.140625 37.480469 39.042969 37.726562 C 38.945312 37.976562 38.894531 38.246094 38.898438 38.542969 C 38.898438 38.96875 39 39.34375 39.195312 39.671875 C 39.390625 40.003906 39.671875 40.261719 40.042969 40.453125 C 40.40625 40.644531 40.851562 40.738281 41.367188 40.742188 C 41.871094 40.742188 42.320312 40.648438 42.71875 40.460938 C 43.113281 40.273438 43.449219 39.984375 43.722656 39.601562 L 43.753906 39.601562 C 43.753906 39.777344 43.757812 39.949219 43.777344 40.109375 C 43.789062 40.265625 43.816406 40.421875 43.851562 40.570312 L 45.652344 40.570312 C 45.609375 40.410156 45.574219 40.234375 45.542969 40.042969 C 45.515625 39.851562 45.488281 39.636719 45.476562 39.398438 C 45.457031 39.160156 45.453125 38.890625 45.453125 38.585938 L 45.453125 35.957031 C 45.453125 35.007812 45.191406 34.292969 44.667969 33.8125 C 44.144531 33.332031 43.371094 33.089844 42.339844 33.089844 Z M 43.523438 37.515625 C 43.527344 37.730469 43.515625 37.925781 43.492188 38.089844 C 43.472656 38.253906 43.429688 38.402344 43.371094 38.535156 C 43.308594 38.664062 43.222656 38.789062 43.109375 38.902344 C 42.960938 39.042969 42.789062 39.148438 42.585938 39.214844 C 42.382812 39.28125 42.179688 39.316406 41.96875 39.316406 C 41.734375 39.316406 41.535156 39.273438 41.378906 39.199219 C 41.21875 39.121094 41.097656 39.015625 41.019531 38.878906 C 40.9375 38.742188 40.894531 38.585938 40.894531 38.402344 C 40.894531 38.113281 40.984375 37.890625 41.167969 37.734375 C 41.359375 37.578125 41.65625 37.46875 42.066406 37.402344 C 42.210938 37.378906 42.371094 37.355469 42.539062 37.335938 C 42.710938 37.316406 42.882812 37.296875 43.050781 37.28125 C 43.222656 37.265625 43.378906 37.253906 43.523438 37.242188 Z M 43.523438 37.515625 "/>
<path style=" stroke:none;fill-rule:nonzero;fill:rgb(0%,0%,85.998535%);fill-opacity:1;" d="M 51.425781 33.203125 C 51 33.199219 50.621094 33.292969 50.292969 33.480469 C 49.96875 33.664062 49.683594 33.953125 49.441406 34.34375 L 49.414062 34.34375 L 49.414062 33.316406 L 47.570312 33.316406 L 47.570312 40.570312 L 49.570312 40.570312 L 49.570312 37.144531 C 49.574219 36.425781 49.730469 35.882812 50.050781 35.507812 C 50.371094 35.136719 50.839844 34.945312 51.457031 34.945312 C 51.554688 34.945312 51.65625 34.953125 51.757812 34.964844 C 51.863281 34.976562 51.96875 34.996094 52.085938 35.015625 L 52.085938 33.289062 C 51.980469 33.257812 51.871094 33.238281 51.753906 33.222656 C 51.640625 33.210938 51.53125 33.203125 51.425781 33.203125 "/>
<path style=" stroke:none;fill-rule:nonzero;fill:rgb(0%,0%,85.998535%);fill-opacity:1;" d="M 57.460938 33.144531 C 57.152344 33.148438 56.863281 33.191406 56.601562 33.285156 C 56.335938 33.375 56.097656 33.503906 55.886719 33.664062 C 55.675781 33.824219 55.488281 34.015625 55.332031 34.230469 L 55.304688 34.230469 L 55.304688 33.316406 L 53.433594 33.316406 L 53.433594 40.570312 L 55.433594 40.570312 L 55.433594 36.6875 C 55.433594 36.25 55.496094 35.886719 55.617188 35.59375 C 55.738281 35.300781 55.90625 35.082031 56.121094 34.933594 C 56.335938 34.789062 56.582031 34.714844 56.859375 34.714844 C 57.257812 34.714844 57.566406 34.84375 57.789062 35.105469 C 58.015625 35.363281 58.128906 35.769531 58.132812 36.316406 L 58.132812 40.570312 L 60.128906 40.570312 L 60.128906 36.117188 C 60.128906 35.457031 60.019531 34.910156 59.800781 34.46875 C 59.582031 34.027344 59.273438 33.699219 58.875 33.480469 C 58.480469 33.257812 58.003906 33.144531 57.460938 33.144531 "/>
<path style=" stroke:none;fill-rule:nonzero;fill:rgb(0%,0%,85.998535%);fill-opacity:1;" d="M 64.261719 32.117188 L 64.261719 30.402344 L 62.265625 30.402344 L 62.265625 32.117188 Z M 64.261719 40.570312 L 64.261719 33.316406 L 62.265625 33.316406 L 62.265625 40.570312 Z M 64.261719 40.570312 "/>
<path style=" stroke:none;fill-rule:nonzero;fill:rgb(0%,0%,85.998535%);fill-opacity:1;" d="M 70.496094 33.144531 C 70.1875 33.148438 69.902344 33.191406 69.636719 33.285156 C 69.371094 33.375 69.132812 33.503906 68.921875 33.664062 C 68.710938 33.824219 68.523438 34.015625 68.367188 34.230469 L 68.339844 34.230469 L 68.339844 33.316406 L 66.46875 33.316406 L 66.46875 40.570312 L 68.46875 40.570312 L 68.46875 36.6875 C 68.46875 36.25 68.53125 35.886719 68.652344 35.59375 C 68.773438 35.300781 68.945312 35.082031 69.160156 34.933594 C 69.371094 34.789062 69.617188 34.714844 69.894531 34.714844 C 70.292969 34.714844 70.601562 34.84375 70.828125 35.105469 C 71.050781 35.363281 71.164062 35.769531 71.167969 36.316406 L 71.167969 40.570312 L 73.167969 40.570312 L 73.167969 36.117188 C 73.164062 35.457031 73.054688 34.910156 72.835938 34.46875 C 72.617188 34.027344 72.308594 33.699219 71.910156 33.480469 C 71.515625 33.257812 71.039062 33.144531 70.496094 33.144531 "/>
<path style=" stroke:none;fill-rule:nonzero;fill:rgb(0%,0%,85.998535%);fill-opacity:1;" d="M 77.828125 33.117188 C 77.214844 33.121094 76.683594 33.269531 76.238281 33.570312 C 75.789062 33.867188 75.445312 34.292969 75.199219 34.84375 C 74.953125 35.390625 74.832031 36.042969 74.828125 36.800781 C 74.832031 37.558594 74.953125 38.210938 75.195312 38.761719 C 75.4375 39.308594 75.78125 39.734375 76.222656 40.03125 C 76.667969 40.332031 77.191406 40.480469 77.800781 40.484375 C 78.230469 40.488281 78.609375 40.402344 78.9375 40.226562 C 79.261719 40.050781 79.5625 39.777344 79.828125 39.402344 L 79.855469 39.402344 L 79.855469 40.042969 C 79.855469 40.511719 79.796875 40.882812 79.675781 41.15625 C 79.5625 41.429688 79.394531 41.625 79.175781 41.742188 C 78.960938 41.859375 78.703125 41.917969 78.398438 41.914062 C 78.019531 41.910156 77.722656 41.832031 77.503906 41.679688 C 77.285156 41.527344 77.167969 41.308594 77.140625 41.027344 L 75.144531 41.027344 C 75.179688 41.507812 75.328125 41.917969 75.582031 42.265625 C 75.839844 42.609375 76.195312 42.875 76.660156 43.058594 C 77.125 43.246094 77.691406 43.339844 78.355469 43.34375 C 79.054688 43.34375 79.660156 43.226562 80.175781 42.996094 C 80.6875 42.761719 81.085938 42.40625 81.371094 41.929688 C 81.652344 41.453125 81.792969 40.847656 81.796875 40.113281 L 81.796875 33.316406 L 79.914062 33.316406 L 79.914062 34.289062 L 79.882812 34.289062 C 79.703125 34.011719 79.507812 33.789062 79.300781 33.617188 C 79.097656 33.441406 78.871094 33.316406 78.628906 33.234375 C 78.390625 33.15625 78.121094 33.117188 77.828125 33.117188 Z M 78.371094 34.757812 C 78.6875 34.761719 78.957031 34.847656 79.191406 35.015625 C 79.421875 35.183594 79.597656 35.421875 79.722656 35.726562 C 79.847656 36.03125 79.910156 36.390625 79.914062 36.800781 C 79.910156 37.214844 79.847656 37.574219 79.722656 37.878906 C 79.597656 38.183594 79.421875 38.417969 79.191406 38.585938 C 78.957031 38.753906 78.6875 38.839844 78.371094 38.84375 C 78.074219 38.839844 77.816406 38.757812 77.597656 38.59375 C 77.382812 38.429688 77.214844 38.195312 77.09375 37.890625 C 76.976562 37.585938 76.917969 37.222656 76.914062 36.800781 C 76.917969 36.378906 76.976562 36.019531 77.09375 35.714844 C 77.214844 35.410156 77.382812 35.171875 77.597656 35.007812 C 77.816406 34.84375 78.074219 34.761719 78.371094 34.757812 "/>
<path style=" stroke:none;fill-rule:nonzero;fill:rgb(0%,0%,85.998535%);fill-opacity:1;" d="M 86.601562 40.742188 C 86.910156 40.742188 87.199219 40.695312 87.460938 40.605469 C 87.726562 40.515625 87.964844 40.386719 88.175781 40.222656 C 88.386719 40.0625 88.574219 39.875 88.730469 39.65625 L 88.757812 39.65625 L 88.757812 40.570312 L 90.628906 40.570312 L 90.628906 33.316406 L 88.628906 33.316406 L 88.628906 37.203125 C 88.628906 37.640625 88.566406 38.003906 88.445312 38.296875 C 88.324219 38.589844 88.15625 38.808594 87.941406 38.953125 C 87.726562 39.097656 87.480469 39.171875 87.203125 39.171875 C 86.804688 39.175781 86.496094 39.046875 86.273438 38.785156 C 86.046875 38.523438 85.9375 38.121094 85.929688 37.574219 L 85.929688 33.316406 L 83.933594 33.316406 L 83.933594 37.773438 C 83.933594 38.429688 84.046875 38.980469 84.261719 39.417969 C 84.480469 39.859375 84.789062 40.1875 85.1875 40.410156 C 85.585938 40.632812 86.058594 40.742188 86.601562 40.742188 "/>
<path style=" stroke:none;fill-rule:nonzero;fill:rgb(0%,0%,85.998535%);fill-opacity:1;" d="M 100.574219 43.34375 L 100.574219 29.386719 L 94.4375 29.386719 L 94.4375 43.34375 Z M 100.574219 43.34375 "/>
</g>
</svg>
