<?xml version="1.0" encoding="UTF-8"?>
<svg xmlns="http://www.w3.org/2000/svg" xmlns:xlink="http://www.w3.org/1999/xlink" width="56.6929pt" height="56.6929pt" viewBox="0 0 56.6929 56.6929" version="1.1">
<g id="surface1">
<path style=" stroke:none;fill-rule:nonzero;fill:rgb(0%,0%,85.998535%);fill-opacity:1;" d="M 35.730469 11.363281 L 35.730469 11.972656 L 35.621094 11.972656 C 30.285156 11.972656 24.945312 11.972656 19.609375 11.972656 L 19.496094 11.972656 L 19.496094 11.257812 L 19.609375 11.257812 C 24.945312 11.257812 30.285156 11.257812 35.621094 11.257812 L 35.730469 11.257812 Z M 38.65625 12.320312 L 37.328125 12.320312 L 37.339844 12.203125 L 37.660156 9.113281 L 37.667969 9.019531 L 39.351562 9.019531 L 39.328125 9.144531 L 38.765625 12.230469 L 38.75 12.320312 Z M 17.484375 12.320312 L 16.15625 12.320312 L 16.167969 12.203125 L 16.488281 9.113281 L 16.496094 9.019531 L 18.179688 9.019531 L 18.15625 9.144531 L 17.59375 12.230469 L 17.578125 12.320312 Z M 27.71875 25.335938 L 26.386719 25.335938 L 26.398438 25.21875 L 26.71875 22.132812 L 26.730469 22.035156 L 28.410156 22.035156 L 28.386719 22.160156 L 27.828125 25.25 L 27.8125 25.335938 Z M 39.691406 19.203125 C 39.703125 19.417969 39.707031 19.636719 39.707031 19.855469 C 39.707031 20.074219 39.703125 20.289062 39.691406 20.507812 C 39.679688 20.71875 39.664062 20.925781 39.640625 21.128906 C 39.621094 21.335938 39.589844 21.539062 39.554688 21.742188 C 39.519531 21.9375 39.476562 22.136719 39.425781 22.332031 C 39.375 22.53125 39.316406 22.730469 39.25 22.929688 C 39.179688 23.132812 39.105469 23.335938 39.023438 23.539062 C 38.941406 23.742188 38.847656 23.949219 38.746094 24.164062 C 38.640625 24.382812 38.527344 24.601562 38.410156 24.820312 L 38.378906 24.875 L 36.851562 24.875 L 36.953125 24.714844 C 37.164062 24.375 37.351562 24.015625 37.515625 23.640625 C 37.679688 23.269531 37.816406 22.878906 37.929688 22.476562 C 38.046875 22.070312 38.132812 21.648438 38.191406 21.210938 C 38.25 20.777344 38.277344 20.324219 38.277344 19.855469 C 38.277344 19.386719 38.25 18.9375 38.191406 18.503906 C 38.132812 18.066406 38.046875 17.640625 37.929688 17.234375 C 37.816406 16.832031 37.679688 16.441406 37.515625 16.070312 C 37.351562 15.695312 37.164062 15.335938 36.953125 14.992188 L 36.851562 14.832031 L 38.378906 14.832031 L 38.410156 14.890625 C 38.53125 15.113281 38.640625 15.328125 38.746094 15.546875 C 38.847656 15.761719 38.941406 15.96875 39.023438 16.171875 C 39.105469 16.375 39.179688 16.574219 39.25 16.777344 C 39.316406 16.976562 39.375 17.175781 39.425781 17.375 C 39.476562 17.574219 39.519531 17.773438 39.554688 17.972656 C 39.589844 18.171875 39.621094 18.375 39.640625 18.578125 C 39.664062 18.78125 39.679688 18.988281 39.691406 19.203125 Z M 34.644531 17.894531 L 34.644531 21.839844 C 34.644531 21.972656 34.628906 22.101562 34.601562 22.230469 C 34.574219 22.355469 34.53125 22.476562 34.472656 22.59375 C 34.417969 22.710938 34.351562 22.816406 34.277344 22.914062 C 34.199219 23.015625 34.113281 23.109375 34.019531 23.191406 C 33.921875 23.277344 33.820312 23.351562 33.710938 23.417969 C 33.601562 23.484375 33.484375 23.539062 33.363281 23.585938 C 33.242188 23.632812 33.117188 23.667969 32.992188 23.691406 C 32.863281 23.714844 32.734375 23.726562 32.601562 23.726562 C 32.46875 23.726562 32.339844 23.714844 32.210938 23.691406 C 32.082031 23.667969 31.957031 23.632812 31.835938 23.585938 C 31.714844 23.539062 31.597656 23.480469 31.488281 23.417969 C 31.378906 23.351562 31.277344 23.277344 31.183594 23.191406 C 31.085938 23.109375 31 23.015625 30.921875 22.914062 C 30.847656 22.816406 30.78125 22.710938 30.726562 22.59375 C 30.667969 22.476562 30.625 22.355469 30.597656 22.230469 C 30.570312 22.105469 30.554688 21.972656 30.554688 21.839844 L 30.554688 17.894531 C 30.554688 17.761719 30.570312 17.628906 30.597656 17.503906 C 30.625 17.378906 30.667969 17.257812 30.726562 17.140625 C 30.78125 17.023438 30.847656 16.917969 30.921875 16.820312 C 31 16.71875 31.085938 16.625 31.183594 16.542969 C 31.277344 16.457031 31.378906 16.382812 31.488281 16.316406 C 31.597656 16.25 31.714844 16.195312 31.835938 16.148438 C 31.957031 16.101562 32.082031 16.066406 32.210938 16.039062 C 32.339844 16.015625 32.46875 16.003906 32.601562 16.003906 C 32.734375 16.003906 32.863281 16.015625 32.992188 16.042969 C 33.117188 16.066406 33.242188 16.101562 33.363281 16.148438 C 33.484375 16.195312 33.601562 16.25 33.710938 16.316406 C 33.820312 16.382812 33.921875 16.457031 34.019531 16.542969 C 34.113281 16.625 34.199219 16.71875 34.277344 16.820312 C 34.351562 16.917969 34.417969 17.023438 34.472656 17.140625 C 34.53125 17.253906 34.574219 17.375 34.601562 17.503906 C 34.628906 17.625 34.644531 17.757812 34.644531 17.894531 Z M 31.984375 17.90625 L 31.984375 21.828125 C 31.984375 21.890625 31.992188 21.945312 32.007812 22 C 32.023438 22.046875 32.046875 22.09375 32.074219 22.136719 C 32.105469 22.179688 32.140625 22.214844 32.179688 22.246094 C 32.21875 22.28125 32.257812 22.308594 32.304688 22.328125 C 32.351562 22.351562 32.402344 22.367188 32.449219 22.378906 C 32.5 22.390625 32.550781 22.398438 32.601562 22.398438 C 32.652344 22.398438 32.699219 22.390625 32.75 22.378906 C 32.796875 22.367188 32.847656 22.351562 32.894531 22.328125 C 32.941406 22.308594 32.980469 22.28125 33.019531 22.246094 C 33.058594 22.214844 33.09375 22.179688 33.125 22.136719 C 33.152344 22.09375 33.175781 22.046875 33.191406 22 C 33.207031 21.945312 33.214844 21.890625 33.214844 21.828125 L 33.214844 17.90625 C 33.214844 17.84375 33.207031 17.785156 33.191406 17.734375 C 33.175781 17.683594 33.152344 17.636719 33.125 17.597656 C 33.09375 17.554688 33.058594 17.515625 33.019531 17.484375 C 32.980469 17.453125 32.941406 17.425781 32.894531 17.40625 C 32.847656 17.382812 32.796875 17.363281 32.75 17.355469 C 32.699219 17.34375 32.648438 17.335938 32.601562 17.335938 C 32.546875 17.335938 32.5 17.34375 32.453125 17.355469 C 32.402344 17.363281 32.351562 17.382812 32.304688 17.40625 C 32.257812 17.425781 32.21875 17.453125 32.179688 17.484375 C 32.140625 17.515625 32.105469 17.554688 32.074219 17.597656 C 32.046875 17.636719 32.027344 17.683594 32.011719 17.734375 C 31.996094 17.785156 31.988281 17.84375 31.984375 17.90625 Z M 24.332031 17.882812 L 24.332031 21.828125 C 24.332031 21.960938 24.316406 22.089844 24.285156 22.21875 C 24.257812 22.34375 24.214844 22.464844 24.160156 22.582031 C 24.101562 22.695312 24.039062 22.804688 23.960938 22.902344 C 23.882812 23.003906 23.796875 23.09375 23.703125 23.179688 C 23.605469 23.265625 23.503906 23.339844 23.394531 23.402344 C 23.285156 23.472656 23.167969 23.527344 23.050781 23.574219 C 22.925781 23.621094 22.800781 23.65625 22.675781 23.679688 C 22.546875 23.703125 22.417969 23.714844 22.285156 23.714844 C 22.152344 23.714844 22.023438 23.703125 21.898438 23.679688 L 21.894531 23.679688 C 21.769531 23.65625 21.640625 23.621094 21.519531 23.574219 C 21.398438 23.527344 21.28125 23.46875 21.171875 23.402344 C 21.0625 23.339844 20.960938 23.265625 20.867188 23.179688 C 20.769531 23.09375 20.683594 23.003906 20.609375 22.902344 C 20.53125 22.804688 20.464844 22.695312 20.410156 22.582031 C 20.355469 22.464844 20.308594 22.34375 20.28125 22.21875 C 20.253906 22.09375 20.238281 21.960938 20.238281 21.828125 L 20.238281 17.882812 C 20.238281 17.746094 20.253906 17.617188 20.28125 17.492188 C 20.308594 17.367188 20.355469 17.242188 20.410156 17.128906 L 20.410156 17.125 C 20.464844 17.011719 20.53125 16.90625 20.609375 16.804688 C 20.683594 16.707031 20.769531 16.613281 20.867188 16.527344 C 20.960938 16.445312 21.0625 16.371094 21.171875 16.304688 C 21.28125 16.238281 21.398438 16.183594 21.519531 16.136719 C 21.640625 16.089844 21.769531 16.050781 21.894531 16.027344 L 21.898438 16.027344 C 22.023438 16.003906 22.152344 15.992188 22.285156 15.992188 C 22.417969 15.992188 22.546875 16.003906 22.675781 16.027344 C 22.800781 16.054688 22.925781 16.089844 23.050781 16.136719 C 23.167969 16.183594 23.285156 16.238281 23.394531 16.304688 C 23.503906 16.371094 23.605469 16.445312 23.703125 16.527344 C 23.796875 16.613281 23.882812 16.707031 23.960938 16.804688 C 24.039062 16.90625 24.101562 17.011719 24.160156 17.125 L 24.160156 17.128906 C 24.214844 17.242188 24.257812 17.363281 24.285156 17.488281 C 24.3125 17.613281 24.328125 17.746094 24.328125 17.882812 Z M 21.671875 17.894531 L 21.671875 21.816406 C 21.671875 21.878906 21.679688 21.933594 21.695312 21.984375 C 21.710938 22.035156 21.730469 22.082031 21.761719 22.125 C 21.792969 22.167969 21.824219 22.203125 21.863281 22.234375 C 21.902344 22.269531 21.945312 22.296875 21.988281 22.316406 C 22.035156 22.339844 22.085938 22.355469 22.132812 22.367188 C 22.183594 22.378906 22.230469 22.382812 22.285156 22.382812 C 22.335938 22.382812 22.386719 22.378906 22.433594 22.367188 C 22.484375 22.355469 22.53125 22.339844 22.578125 22.316406 C 22.625 22.296875 22.667969 22.269531 22.707031 22.234375 C 22.742188 22.203125 22.777344 22.167969 22.808594 22.125 C 22.835938 22.082031 22.859375 22.035156 22.875 21.984375 C 22.890625 21.933594 22.898438 21.878906 22.898438 21.816406 L 22.898438 17.894531 C 22.898438 17.832031 22.890625 17.773438 22.875 17.722656 C 22.859375 17.671875 22.835938 17.625 22.808594 17.585938 C 22.777344 17.542969 22.742188 17.503906 22.707031 17.472656 C 22.667969 17.441406 22.625 17.414062 22.578125 17.394531 C 22.53125 17.371094 22.480469 17.351562 22.433594 17.339844 C 22.386719 17.332031 22.335938 17.324219 22.285156 17.324219 C 22.234375 17.324219 22.183594 17.332031 22.136719 17.339844 C 22.085938 17.351562 22.039062 17.371094 21.988281 17.394531 C 21.945312 17.414062 21.902344 17.441406 21.863281 17.472656 C 21.824219 17.503906 21.792969 17.542969 21.761719 17.585938 C 21.730469 17.625 21.710938 17.671875 21.695312 17.722656 C 21.679688 17.773438 21.671875 17.832031 21.671875 17.894531 Z M 15.574219 20.507812 C 15.5625 20.289062 15.558594 20.074219 15.558594 19.855469 C 15.558594 19.636719 15.5625 19.417969 15.574219 19.203125 C 15.585938 18.988281 15.601562 18.78125 15.625 18.578125 C 15.648438 18.371094 15.675781 18.171875 15.710938 17.972656 C 15.75 17.773438 15.792969 17.574219 15.84375 17.375 C 15.890625 17.175781 15.953125 16.976562 16.019531 16.777344 C 16.085938 16.574219 16.160156 16.375 16.242188 16.171875 C 16.328125 15.96875 16.417969 15.761719 16.523438 15.546875 C 16.625 15.332031 16.734375 15.113281 16.859375 14.890625 L 16.890625 14.832031 L 18.417969 14.832031 L 18.316406 14.992188 C 18.101562 15.339844 17.914062 15.699219 17.75 16.070312 C 17.585938 16.445312 17.449219 16.832031 17.335938 17.234375 C 17.222656 17.640625 17.132812 18.0625 17.078125 18.5 C 17.019531 18.933594 16.992188 19.386719 16.992188 19.855469 C 16.992188 20.328125 17.019531 20.777344 17.078125 21.210938 L 17.078125 21.214844 C 17.132812 21.648438 17.222656 22.074219 17.335938 22.476562 C 17.449219 22.882812 17.585938 23.269531 17.75 23.640625 C 17.914062 24.015625 18.101562 24.371094 18.316406 24.714844 L 18.417969 24.875 L 16.890625 24.875 L 16.859375 24.820312 C 16.738281 24.601562 16.628906 24.386719 16.527344 24.175781 C 16.421875 23.957031 16.328125 23.742188 16.242188 23.539062 C 16.160156 23.335938 16.085938 23.132812 16.019531 22.929688 C 15.953125 22.730469 15.890625 22.53125 15.84375 22.332031 C 15.792969 22.132812 15.746094 21.933594 15.710938 21.734375 C 15.675781 21.535156 15.644531 21.335938 15.625 21.128906 C 15.601562 20.925781 15.585938 20.71875 15.574219 20.507812 Z M 46.46875 37.289062 L 45.695312 37.289062 L 45.664062 37.230469 L 42.007812 29.527344 L 41.921875 29.371094 L 42.863281 29.371094 L 42.894531 29.429688 L 46.566406 37.132812 L 46.648438 37.289062 Z M 36.957031 33.980469 C 36.945312 33.765625 36.941406 33.546875 36.941406 33.328125 C 36.941406 33.109375 36.945312 32.890625 36.957031 32.675781 C 36.96875 32.460938 36.984375 32.253906 37.007812 32.050781 C 37.03125 31.847656 37.058594 31.644531 37.09375 31.445312 C 37.132812 31.246094 37.175781 31.046875 37.226562 30.847656 C 37.273438 30.652344 37.332031 30.453125 37.398438 30.257812 C 37.46875 30.050781 37.542969 29.847656 37.628906 29.644531 C 37.710938 29.441406 37.804688 29.226562 37.910156 29.007812 C 38.011719 28.796875 38.121094 28.582031 38.242188 28.363281 L 38.273438 28.304688 L 39.800781 28.304688 L 39.699219 28.46875 C 39.484375 28.8125 39.296875 29.171875 39.132812 29.546875 C 38.96875 29.917969 38.832031 30.304688 38.71875 30.707031 C 38.605469 31.113281 38.515625 31.535156 38.460938 31.972656 C 38.402344 32.40625 38.375 32.859375 38.375 33.328125 C 38.375 33.800781 38.402344 34.25 38.460938 34.683594 C 38.515625 35.125 38.605469 35.546875 38.71875 35.949219 C 38.832031 36.351562 38.96875 36.738281 39.132812 37.109375 C 39.296875 37.484375 39.484375 37.84375 39.699219 38.1875 L 39.800781 38.351562 L 38.273438 38.351562 L 38.242188 38.292969 C 38.121094 38.074219 38.011719 37.855469 37.910156 37.644531 C 37.804688 37.425781 37.710938 37.214844 37.628906 37.011719 C 37.542969 36.808594 37.46875 36.605469 37.402344 36.402344 C 37.335938 36.203125 37.277344 36.003906 37.226562 35.808594 C 37.175781 35.605469 37.132812 35.40625 37.09375 35.203125 C 37.058594 35.007812 37.03125 34.804688 37.007812 34.601562 C 36.984375 34.402344 36.96875 34.191406 36.957031 33.980469 Z M 33.394531 37.25 L 31.703125 37.25 L 31.703125 35.417969 L 33.503906 35.417969 L 33.503906 37.25 Z M 28.339844 33.558594 L 26.648438 33.558594 L 26.648438 31.726562 L 28.449219 31.726562 L 28.449219 33.558594 Z M 28.339844 37.25 L 26.648438 37.25 L 26.648438 35.417969 L 28.449219 35.417969 L 28.449219 37.25 Z M 23.035156 37.25 L 21.34375 37.25 L 21.34375 35.417969 L 23.144531 35.417969 L 23.144531 37.25 Z M 15.417969 33.980469 C 15.410156 33.765625 15.402344 33.546875 15.402344 33.328125 C 15.402344 33.109375 15.410156 32.890625 15.417969 32.675781 C 15.429688 32.460938 15.445312 32.253906 15.46875 32.050781 C 15.492188 31.847656 15.519531 31.644531 15.558594 31.445312 C 15.59375 31.246094 15.636719 31.046875 15.6875 30.847656 C 15.738281 30.652344 15.796875 30.453125 15.863281 30.253906 C 15.929688 30.050781 16.007812 29.847656 16.089844 29.644531 C 16.171875 29.441406 16.269531 29.226562 16.375 29.007812 C 16.472656 28.796875 16.582031 28.582031 16.703125 28.363281 L 16.734375 28.304688 L 18.261719 28.304688 L 18.160156 28.46875 C 17.949219 28.808594 17.757812 29.167969 17.59375 29.542969 C 17.433594 29.917969 17.292969 30.304688 17.179688 30.707031 C 17.066406 31.113281 16.980469 31.535156 16.921875 31.972656 C 16.863281 32.40625 16.835938 32.859375 16.835938 33.328125 C 16.835938 33.800781 16.863281 34.25 16.921875 34.683594 C 16.980469 35.125 17.066406 35.546875 17.179688 35.949219 C 17.292969 36.351562 17.433594 36.738281 17.59375 37.109375 C 17.757812 37.484375 17.949219 37.84375 18.160156 38.1875 L 18.261719 38.351562 L 16.734375 38.351562 L 16.703125 38.292969 C 16.582031 38.074219 16.472656 37.859375 16.371094 37.644531 C 16.265625 37.425781 16.171875 37.214844 16.089844 37.011719 C 16.007812 36.808594 15.929688 36.605469 15.863281 36.402344 C 15.796875 36.203125 15.738281 36.003906 15.6875 35.808594 C 15.636719 35.605469 15.59375 35.40625 15.558594 35.207031 C 15.519531 35.007812 15.492188 34.804688 15.46875 34.601562 C 15.445312 34.402344 15.429688 34.191406 15.417969 33.980469 Z M 34.761719 42.675781 L 34.640625 45.835938 L 34.636719 45.9375 L 33.34375 45.9375 L 33.339844 45.835938 L 33.21875 42.675781 L 33.214844 42.566406 L 34.765625 42.566406 Z M 32.058594 42.675781 L 31.9375 45.835938 L 31.933594 45.9375 L 30.640625 45.9375 L 30.636719 45.835938 L 30.515625 42.675781 L 30.511719 42.566406 L 32.0625 42.566406 Z M 24.453125 42.675781 L 24.332031 45.835938 L 24.328125 45.9375 L 23.039062 45.9375 L 23.03125 45.835938 L 22.910156 42.675781 L 22.90625 42.566406 L 24.457031 42.566406 Z M 21.75 42.675781 L 21.628906 45.835938 L 21.625 45.9375 L 20.332031 45.9375 L 20.328125 45.835938 L 20.207031 42.675781 L 20.203125 42.566406 L 21.753906 42.566406 Z M 21.75 42.675781 "/>
</g>
</svg>
